<svg width="25" height="25" viewBox="0 0 25 25" fill="none" xmlns="http://www.w3.org/2000/svg">
<path d="M0 1H3.0374L6.42424 17.7756C6.45112 18.4521 6.98872 18.9932 7.66071 18.9932H23.9498" stroke="#202020"/>
<path d="M3.5 3.81398H22.9015C23.3316 3.81398 23.7079 3.97632 23.9767 4.30101C24.2186 4.6257 24.3261 5.03157 24.2455 5.46449L22.7133 13.5006C22.5521 14.3664 21.7188 15.0428 20.8586 15.0699H5.86646" stroke="#202020"/>
<path d="M8.34863 22.8354C8.34863 21.9179 9.09555 21.1708 9.99901 21.1708C10.9025 21.1708 11.6494 21.9179 11.6494 22.8354C11.6494 23.7529 10.9025 24.5 9.99901 24.5C9.09555 24.5 8.34863 23.7529 8.34863 22.8354Z" stroke="#202020"/>
<path d="M18.2676 22.8354C18.2676 21.9179 19.0145 21.1708 19.918 21.1708C20.8214 21.1708 21.5683 21.9179 21.5683 22.8354C21.5683 23.7529 20.8214 24.5 19.918 24.5C19.0145 24.5 18.2676 23.7529 18.2676 22.8354Z" stroke="#202020"/>
</svg>
